<svg width="94" height="103" xmlns="http://www.w3.org/2000/svg" xmlns:xlink="http://www.w3.org/1999/xlink"><use xlink:href="#path0_fill" transform="translate(60.559 78.33)" fill="#FFC94C"/><use xlink:href="#path1_fill" transform="translate(0 .25)" fill="#FFC94C"/><use xlink:href="#path2_fill" transform="translate(16.585 78.33)" fill="#FFC94C"/><defs><path id="path0_fill" fill-rule="evenodd" d="M16.895.934a12.21 12.21 0 0 1 7.53 11.289c-.012 6.737-5.474 12.193-12.212 12.2a12.213 12.213 0 0 1-8.632-20.85A12.21 12.21 0 0 1 16.895.933zm-4.67 8.233a3.056 3.056 0 1 0 0 6.112 3.056 3.056 0 0 0 0-6.112z"/><path id="path1_fill" fill-rule="evenodd" d="M19.56 15.336l69.717-.39a4.58 4.58 0 0 1 4.441 5.814l-8.012 28.61A16.093 16.093 0 0 1 70.38 61.09l-50.579.33a6.867 6.867 0 0 0 6.616 5.06h61.715a4.578 4.578 0 1 1 0 9.156H26.417c-8.85 0-16.024-7.174-16.024-16.023v-45.88a4.578 4.578 0 0 0-4.579-4.579H4.578a4.577 4.577 0 1 1 0-9.155h1.248C13.412 0 19.56 6.148 19.56 13.733v1.603zm50.763 36.6a6.868 6.868 0 0 0 6.57-5.025l6.352-22.774-63.696.354v27.777l50.774-.333z"/><path id="path2_fill" fill-rule="evenodd" d="M23.497 16.882a12.213 12.213 0 0 1-11.284 7.54C5.475 24.417.013 18.96 0 12.223A12.21 12.21 0 0 1 7.531.935a12.21 12.21 0 0 1 15.966 15.948zm-8.228-4.66a3.056 3.056 0 1 0-6.112.001 3.056 3.056 0 0 0 6.112 0z"/></defs></svg>