<svg width="151" height="31" xmlns="http://www.w3.org/2000/svg" xmlns:xlink="http://www.w3.org/1999/xlink"><g transform="translate(787 448)"><path fill="#FFF" d="M-787-448h151v31h-151z"/><clipPath id="a" clip-rule="evenodd"><path d="M-827-489H973V591H-827V-489z" fill="#FFF"/></clipPath><g clip-path="url(#a)"><path d="M-827-489H973V591H-827V-489z" fill="#F1F1F1"/><use xlink:href="#path0_fill" transform="translate(-787 -448)"/></g></g><defs><path id="path0_fill" fill-rule="evenodd" d="M0 9.437h12.284V4.098C12.284.84 13.92 0 16.095 0h2.462v3.234c-.983 0-1.464.148-1.464.864v5.339h4.81V31h-4.81V12.671H4.81V31H0V9.437zm130.449 0h4.81V18.6h10.931V9.437H151V31h-4.81v-9.164h-10.931V31h-4.81V9.437zm-22.021 4.098v11.792l10.931-15.89h4.81V31h-4.81V15.11L108.428 31h-4.81V13.535c0-.716-.481-.864-1.464-.864V9.437h2.462c2.175 0 3.812.84 3.812 4.098zM76.469 9.437h4.81V18.6h2.792c5.924 0 .442-9.164 12.187-9.164v3.234c-5.87 0-3.54 7.304-7.213 7.493 3.934.425 2.262 7.601 7.92 7.601V31c-12.24 0-6.546-9.164-12.894-9.164H81.28V31h-4.81V9.437zm-48.44 0H45.43v3.234H32.84v5.93h11.675v3.235H32.84v5.93h13.794V31H28.03V9.437zm28.43 4.098v4.559c0 6.157 4.511 4.684 9.876.65V9.438h4.81V31h-4.81v-8.345c-6.525 4.387-14.686 5.62-14.686-4.777v-4.343c0-.716-.481-.864-1.464-.864V9.437h2.462c2.175 0 3.811.84 3.811 4.098zM10.15 29.37h1.603v-5.546H10.15v5.546zm3.173 0h1.603v-5.546h-1.603v5.546zm-6.347 0H8.58v-5.546H6.976v5.546zm0-12.28h7.95v-2.696h-7.95v2.696z"/></defs></svg>