<svg width="15" height="26" xmlns="http://www.w3.org/2000/svg" xmlns:xlink="http://www.w3.org/1999/xlink"><use xlink:href="#path0_fill" transform="translate(.09)" fill="#EB4848"/><use xlink:href="#path1_fill" transform="translate(2.31 23.2)" fill="#E3E6EB"/><defs><path id="path0_fill" fill-rule="evenodd" d="M5.677 18.709c.643.923 1.24 1.782 1.728 2.538a91.766 91.766 0 0 1 1.728-2.538c2.529-3.633 5.753-8.264 5.676-11.533C14.713 3.168 11.444 0 7.405 0 3.271 0 .098 3.168.001 7.176c-.076 3.269 3.147 7.9 5.676 11.533zM3.174 7.083c0-2.237 1.924-4.008 4.231-4.008 2.308 0 4.135 1.77 4.135 4.008 0 2.236-1.827 4.1-4.135 4.1-2.307 0-4.23-1.864-4.23-4.1z"/><path id="path1_fill" fill-rule="evenodd" d="M5.192 2.796c2.868 0 5.193-.626 5.193-1.398C10.385.626 8.06 0 5.192 0 2.325 0 0 .626 0 1.398c0 .772 2.325 1.398 5.192 1.398z"/></defs></svg>