<svg width="132" height="93" xmlns="http://www.w3.org/2000/svg" xmlns:xlink="http://www.w3.org/1999/xlink"><use xlink:href="#path0_fill" fill="#FFC94C"/><defs><path id="path0_fill" fill-rule="evenodd" d="M45 0c-4.267 0-8.12 1.468-10.828 4.172-2.148 2.145-3.276 5.114-3.75 8.344-8.058 1.554-15.158 6.58-18.235 14.953l-9 24a2.919 2.919 0 0 0-.093.281C1.15 55.6 0 59.904 0 64.5 0 80.204 12.795 93 28.5 93c13.143 0 24.243-8.965 27.516-21.094 1.605 1 3.469 1.594 5.484 1.594h9c2.015 0 3.88-.595 5.484-1.594C79.257 84.036 90.357 93 103.5 93c15.705 0 28.5-12.796 28.5-28.5 0-4.648-1.156-9.009-3.141-12.89l-.047-.141-9-24c-3.076-8.373-10.176-13.399-18.234-14.953-.474-3.23-1.602-6.199-3.75-8.344C95.121 1.468 91.267 0 87 0c-7.258 0-13.79 4.513-15.656 11.344a2.982 2.982 0 0 0-.516.656h-9.703a3.002 3.002 0 0 0-.469-.61C58.806 4.536 52.273 0 45 0zm0 6c5.519 0 9.925 3.107 10.453 8.016L52.36 48.938C47.264 41.15 38.472 36 28.5 36c-5.369 0-10.378 1.53-14.672 4.125l3.985-10.594c2.57-6.995 8.393-10.779 15.515-11.531A3 3 0 0 0 36 15c0-2.951.947-5.121 2.438-6.61C39.928 6.903 42.056 6 45 6zm48.563 2.39C92.073 6.903 89.942 6 87 6c-5.519 0-9.925 3.107-10.453 8.016l3.094 34.922C84.736 41.15 93.528 36 103.5 36c5.369 0 10.378 1.53 14.672 4.125l-3.984-10.594c-2.571-6.995-8.394-10.779-15.516-11.531A3 3 0 0 1 96 15c0-2.951-.948-5.121-2.438-6.61zM61.124 18h9.75l3.094 35.11a10.313 10.313 0 0 0-3.469-.61h-9c-1.218 0-2.378.222-3.469.61L61.125 18zM51 64.5A22.455 22.455 0 0 0 28.5 42c-8.568 0-15.98 4.751-19.781 11.766a3 3 0 0 1-.235.468A22.444 22.444 0 0 0 6 64.5 22.455 22.455 0 0 0 28.5 87 22.46 22.46 0 0 0 51 64.828a2.993 2.993 0 0 1 0-.328zM103.5 42c8.545 0 15.923 4.734 19.734 11.719.086.215.196.42.328.61A22.436 22.436 0 0 1 126 64.5 22.455 22.455 0 0 1 103.5 87 22.46 22.46 0 0 1 81 64.922a3 3 0 0 0 0-.422v-.281A22.459 22.459 0 0 1 103.5 42zM9 64.5C9 53.766 17.766 45 28.5 45S48 53.766 48 64.5 39.234 84 28.5 84 9 75.234 9 64.5zM103.5 45C92.766 45 84 53.766 84 64.5S92.766 84 103.5 84 123 75.234 123 64.5 114.234 45 103.5 45zM42 64.5C42 57.009 35.992 51 28.5 51 21.009 51 15 57.009 15 64.5S21.009 78 28.5 78C35.992 78 42 71.991 42 64.5zM103.5 51c7.491 0 13.5 6.009 13.5 13.5S110.991 78 103.5 78C96.008 78 90 71.991 90 64.5S96.008 51 103.5 51zM74.672 61.313c-.649-1.67-2.23-2.813-4.172-2.813h-9c-1.909 0-3.503 1.096-4.172 2.719l-.234 2.625c.375 2.125 2.148 3.656 4.406 3.656h9c2.258 0 4.03-1.531 4.406-3.656l-.234-2.532z"/></defs></svg>